<?xml version="1.0" standalone="no"?>
<!DOCTYPE svg PUBLIC "-//W3C//DTD SVG 20010904//EN"
 "http://www.w3.org/TR/2001/REC-SVG-20010904/DTD/svg10.dtd">
<svg version="1.0" xmlns="http://www.w3.org/2000/svg"
 width="1000.000000pt" height="1000.000000pt" viewBox="0 0 1000.000000 1000.000000"
 preserveAspectRatio="xMidYMid meet">
<metadata>
Created by potrace 1.16, written by Peter Selinger 2001-2019
</metadata>
<g transform="translate(0.000000,1000.000000) scale(0.100000,-0.100000)"
fill="#000000" stroke="none">
<path d="M0 5000 l0 -5000 5000 0 5000 0 0 5000 0 5000 -5000 0 -5000 0 0
-5000z m7867 1339 c124 -17 113 12 113 -300 l0 -270 -81 2 c-66 1 -85 -2 -107
-18 -33 -25 -51 -72 -51 -140 l-1 -53 120 0 120 0 0 -270 0 -270 -120 0 -120
0 0 -460 0 -460 -360 0 -360 0 0 460 0 460 -95 0 -95 0 0 270 0 270 93 0 94 0
6 148 c7 167 27 264 78 363 63 125 206 231 359 263 79 17 300 20 407 5z
m-4569 -508 l-4 -450 63 62 c115 113 222 157 382 157 152 0 251 -35 344 -120
66 -61 111 -135 136 -230 20 -71 21 -101 21 -612 l0 -538 -360 0 -360 0 0 418
c0 377 -2 420 -18 452 -15 32 -21 35 -64 38 -61 4 -85 -10 -109 -61 -17 -39
-19 -71 -19 -444 l0 -403 -360 0 -360 0 0 96 0 95 58 26 c51 24 68 27 162 25
87 -1 117 3 175 22 39 14 71 23 72 22 1 -1 -14 -12 -33 -26 -45 -30 -129 -59
-173 -60 -34 0 -34 0 -15 -21 75 -84 234 -76 310 14 53 62 125 245 111 281 -5
13 -13 12 -54 -6 -55 -24 -132 -27 -211 -8 -65 15 -82 9 -82 -30 0 -47 -24
-94 -61 -121 -26 -19 -48 -24 -94 -25 -33 0 -71 -4 -84 -8 -39 -13 -20 15 34
51 27 18 59 45 71 60 13 15 23 24 24 20 0 -14 -28 -63 -44 -76 -24 -20 -10
-30 31 -20 22 4 50 21 66 39 33 37 38 85 16 183 -13 54 -31 60 -61 22 -11 -14
-46 -39 -79 -55 -64 -33 -76 -54 -66 -117 5 -29 1 -42 -18 -65 -14 -16 -25
-40 -25 -53 0 -12 -7 -28 -15 -35 -13 -11 -15 98 -15 969 l0 981 356 0 356 0
-4 -449z m2922 348 c8 0 53 3 100 6 74 4 88 2 112 -15 15 -11 36 -20 47 -20
30 0 117 -102 141 -168 36 -95 13 -214 -48 -246 -51 -26 -316 -59 -417 -52
-160 12 -177 22 -210 121 -37 109 13 227 145 341 31 26 75 44 95 38 11 -3 27
-6 35 -5z m-3820 -359 l0 -340 -205 0 -205 0 0 -690 0 -690 -380 0 -380 0 0
690 0 690 -205 0 -205 0 0 340 0 340 790 0 790 0 0 -340z m6570 -20 l0 -240
100 0 100 0 0 -270 0 -270 -100 0 -100 0 0 -460 0 -460 -360 0 -361 0 3 141
c3 139 3 142 29 161 l26 19 52 -32 c137 -85 301 -23 361 138 24 64 27 108 6
100 -8 -3 -45 1 -83 10 -202 44 -313 1 -353 -138 l-8 -28 71 6 c40 3 99 11
132 18 33 8 61 12 63 10 9 -8 -134 -45 -177 -45 -25 -1 -57 -7 -71 -15 -34
-19 -52 -19 -49 3 1 9 1 142 0 295 l-1 277 -100 0 -100 0 0 270 0 270 100 0
100 0 0 240 0 240 360 0 360 0 0 -240z m-3240 -555 c0 -195 -3 -355 -7 -355
-5 0 -35 11 -68 25 -47 19 -78 25 -140 25 -126 0 -196 -40 -241 -135 -23 -49
-24 -54 -24 -377 l0 -328 -360 0 -360 0 0 730 0 730 350 0 350 0 0 -92 0 -91
73 70 c109 106 213 152 350 152 l77 1 0 -355z m915 303 c3 -13 4 -342 3 -733
l-3 -710 -357 -3 -358 -2 0 728 c0 401 3 732 7 735 3 4 163 7 354 7 l349 0 5
-22z"/>
<path d="M6587 5834 c-5 -6 -66 -14 -232 -32 -38 -4 -141 -7 -228 -7 -166 0
-173 -2 -139 -44 38 -48 204 -60 402 -31 80 11 153 23 163 26 19 6 57 60 57
82 0 13 -12 16 -23 6z"/>
</g>
</svg>
